<svg id="Layer_1" data-name="Layer 1" xmlns="http://www.w3.org/2000/svg" width="956.36" height="2808.39" viewBox="0 0 956.36 2808.39"><title>Cello</title><path d="M911.31,1980.18c-59.74-81.79-14.56-129.1-14.56-129.1l-34.37-49.15c-33.18,21.58-87.93,0-97.52-19.19s-30-87.52-26.38-214.62,92.33-94.72,92.33-94.72-.67,4.69,6.8-17.74c-11.21-10-13.61-33.64-13.61-55.23s38.38-79.15,38.38-194.28c0-107.18-67.16-303.75-324.44-330.39l-19.6-564.87s11.73-4.15,22.09-6.91c0-67-27.38-204.22-27.38-215.14,17.54,0,33.77-83.34-34.87-83.34S420.62,88.84,443.3,88.84C443.3,99.76,415.93,237,415.93,304c10.35,2.76,22.09,6.91,22.09,6.91L418.41,875.76C161.13,902.4,94,1099,94,1206.15c0,115.13,38.38,172.69,38.38,194.28s-2.4,45.26-13.62,55.23c7.48,22.43,6.81,17.74,6.81,17.74s88.72-32.37,92.32,94.72-16.78,195.44-26.38,214.62-64.34,40.77-97.51,19.19L59.6,1851.08s45.19,47.31-14.55,129.1c-21.63,29.62-186.4,586,367,586,3.31,14.27,27.61,28.35,44.22,28.88,0,15.53,2.35,195.49,2.35,195.49s2.36,12.32,14.14,12.32h10.77c11.78,0,14.14-12.32,14.14-12.32s2.36-180,2.36-195.49c16.6-.53,40.91-14.61,44.21-28.88C1097.71,2566.2,932.94,2009.8,911.31,1980.18Z" fill="none" stroke="#fa1d3b" stroke-miterlimit="10" stroke-width="30"/><polygon points="435.37 141.8 383.7 141.8 383.7 163.35 431.93 163.35 435.37 141.8" fill="#fa1d3b"/><polygon points="425.37 226.19 381.7 226.19 381.7 247.74 421.93 247.74 425.37 226.19" fill="#fa1d3b"/><path d="M392.76,151.92c0,17.65,2.07,34.67-23.76,34.67s-54.75-2.7-54.75-34.67,28.93-34.68,54.75-34.68S392.76,134.26,392.76,151.92Z" fill="#fa1d3b"/><polygon points="519.68 116.8 571.36 116.8 571.36 138.35 523.12 138.35 519.68 116.8" fill="#fa1d3b"/><path d="M562.3,126.92c0,17.65-2.07,34.67,23.75,34.67s54.76-2.7,54.76-34.67-28.94-34.68-54.76-34.68S562.3,109.26,562.3,126.92Z" fill="#fa1d3b"/><polygon points="526.68 194.17 571.36 194.17 571.36 215.72 530.12 215.72 526.68 194.17" fill="#fa1d3b"/><path d="M562.3,204.29c0,17.66-2.07,34.67,23.75,34.67s54.76-2.7,54.76-34.67-28.94-34.68-54.76-34.68S562.3,186.63,562.3,204.29Z" fill="#fa1d3b"/><path d="M390.76,235.87c0,17.66,2.07,34.68-23.76,34.68s-54.75-2.7-54.75-34.68S341.18,201.2,367,201.2,390.76,218.21,390.76,235.87Z" fill="#fa1d3b"/></svg>