<svg id="Layer_1" data-name="Layer 1" xmlns="http://www.w3.org/2000/svg" width="698.27" height="683.66" viewBox="0 0 698.27 683.66"><title>Eend</title><path d="M257.07,7.08c144.86-23.45,313.7,220.8,109.27,326.14a26.45,26.45,0,0,0,.83,10.85s121,26.69,135.13,27.52,58.39,3.34,134.3-50.88S764.37,661.23,426.7,675.86,12.48,635.34,5.73,509.27s137.32-179,143-195.85,12.57-38.84-94.55-74.29c-44.62-14.76,11.26-40.52,11.26-40.52S36.12,150.21,45.13,121s64.15,23.64,92.29,18,37.15-67.54,61.91-81S202.42,15.92,257.07,7.08Z" fill="none" stroke="#fa1d3b" stroke-miterlimit="10" stroke-width="11"/><ellipse cx="188.45" cy="125.76" rx="32.72" ry="10.04" transform="translate(-9.07 236.73) rotate(-63.04)" fill="#fa1d3b"/><path d="M241.11,460.78c323.66-89.32,347.88,93.91,136,145.41" fill="none" stroke="#fa1d3b" stroke-miterlimit="10" stroke-width="11"/></svg>