<svg id="Laag_1" data-name="Laag 1" xmlns="http://www.w3.org/2000/svg" width="214.74mm" height="205.31mm" viewBox="0 0 608.71 581.99">
  <defs>
    <style>
      .cls-1 {
        fill: none;
        stroke: #e62b41;
        stroke-miterlimit: 10;
        stroke-width: 11px;
      }

      .cls-2 {
        fill: #e62b41;
      }
    </style>
  </defs>
  <title>obv icons</title>
  <g>
    <path class="cls-1" d="M183.22,354.91V260.39H128.56v94.52A118.61,118.61,0,0,0,247.17,473.52H292v-.44A118.59,118.59,0,0,1,183.22,354.91Z"/>
    <path class="cls-1" d="M237.27,354.52V260H182.61v94.52A118.61,118.61,0,0,0,301.22,473.13H346v-.44A118.59,118.59,0,0,1,237.27,354.52Z"/>
  </g>
  <g>
    <path class="cls-1" d="M428.5,354.72V260.19h54.65v94.53a118.6,118.6,0,0,1-118.61,118.6h-44.8v-.43A118.61,118.61,0,0,0,428.5,354.72Z"/>
    <path class="cls-1" d="M374.45,354.33V259.81H429.1v94.52A118.61,118.61,0,0,1,310.49,472.94h-44.8v-.44A118.59,118.59,0,0,0,374.45,354.33Z"/>
  </g>
  <path class="cls-1" d="M126.88,255.58q27.75-34.12,55.51-68.23l56.43,68.23"/>
  <path class="cls-1" d="M372.88,257.25q27.75-34.11,55.51-68.23l56.43,68.23"/>
  <rect class="cls-1" x="128.55" y="258.71" width="108.71" height="41.39"/>
  <rect class="cls-1" x="374.45" y="259.92" width="108.71" height="41.39"/>
  <rect class="cls-2" x="177.48" y="80.98" width="10.82" height="106.36"/>
  <rect class="cls-2" x="423.4" y="80.98" width="10.82" height="106.36"/>
</svg>
