<svg xmlns="http://www.w3.org/2000/svg" width="434.01" height="402.28" viewBox="0 0 434.01 402.28"><title>Hond</title><g id="Layer_4" data-name="Layer 4"><path d="M194.5,5.78s45-5,45,27v39l189-1s2,71-74,86v19h5v28h-5v51c0,14.5-12,67-69,67v11.5c0,11-2,25.5-16,25.5v11s22,7,22,27h-80v-74H84.5v14.5c0,12-8,23.5-19,23.5v12s20,4,20,24H5.5v-127s11-57,58-57H194v-8.5h-4v-29h5Z" fill="none" stroke="#fa1d3b" stroke-miterlimit="10" stroke-width="11"/><rect x="190" y="170.78" width="169" height="38" fill="#fa1d3b"/><path d="M239.5,71.78l33.76-.18V35.78c0-13.5-5-25.38-25.38-25.38H227.5" fill="none" stroke="#fa1d3b" stroke-miterlimit="10" stroke-width="11"/><circle cx="260.5" cy="90.78" r="6.5" fill="#fa1d3b"/><path d="M395,71c0,4.82,13.27,30.1,27.87,30.1,2.6,0,5.6-30.28,5.6-30.28Z" fill="#fa1d3b"/><path d="M325.87,308.69v29.59c0,13-7.87,21-16.87,21v11s22,10,22,26H293.5" fill="none" stroke="#fa1d3b" stroke-miterlimit="10" stroke-width="11"/><path d="M122,322.78v19.5c0,12-9,20-19,20v11s19,2,19,22H85" fill="none" stroke="#fa1d3b" stroke-miterlimit="10" stroke-width="11"/><path d="M16.56,241.82V169.28H32c10,0,16,6,16,19v26.8" fill="none" stroke="#fa1d3b" stroke-miterlimit="10" stroke-width="11"/></g></svg>