<svg id="Layer_1" data-name="Layer 1" xmlns="http://www.w3.org/2000/svg" width="425.53" height="531.7" viewBox="0 0 425.53 531.7"><title>Hondfilter</title><path d="M161.77,74.84c-1.09-17.41-25.06-79.52-59.85-68.55-18.54,5.84-13.29,15.89-30.47,25C56.17,39.44,6.67,47,5,67.4c-.42,5.36,2.21,10.71,9.82,28.12S30,136.75,62.74,139.05c23.46,1.64,35.38-18,37.74-19.56C130.34,99.43,161.77,74.84,161.77,74.84Z" fill="none" stroke="#fa1d3b" stroke-miterlimit="10" stroke-width="10"/><path d="M106.36,121.69l-9.08-6.21c7.2-10.53,7.47-21.47,7.88-38,.16-6.63.35-14.14,1-22.77.6-7.93.92-13.3,1.13-16.85.18-3,.29-4.79.44-6a5.66,5.66,0,0,1,3.78-4.72c3.27-1.14,5.94.36,12.85,5.79,1.18.92,2.38,1.9,3.47,2.79a4.78,4.78,0,0,1,.37,7h0a6.37,6.37,0,0,1-8.57.47l-1.56-1.26c-.21,3.37-.5,7.81-.94,13.61-.64,8.35-.82,15.7-1,22.2C115.71,95.57,115.4,108.48,106.36,121.69Z" fill="#fa1d3b"/><path d="M263.77,74.84c1.08-17.41,25.05-79.52,59.85-68.55,18.53,5.84,13.28,15.89,30.46,25C369.36,39.44,418.87,47,420.49,67.4c.42,5.36-2.2,10.71-9.82,28.12s-15.15,41.23-47.88,43.53c-23.46,1.64-35.38-18-37.74-19.56C295.19,99.43,263.77,74.84,263.77,74.84Z" fill="none" stroke="#fa1d3b" stroke-miterlimit="10" stroke-width="10"/><path d="M319.18,121.69l9.08-6.21c-7.21-10.53-7.48-21.47-7.89-38-.16-6.63-.34-14.14-1-22.77-.6-7.93-.92-13.3-1.13-16.85-.18-3-.28-4.79-.43-6A5.69,5.69,0,0,0,314,27.07c-3.27-1.14-5.94.36-12.85,5.79-1.17.92-2.38,1.9-3.47,2.79a4.79,4.79,0,0,0-.37,7h0a6.38,6.38,0,0,0,8.58.47c.52-.43,1-.86,1.56-1.26.2,3.37.49,7.81.93,13.61.64,8.35.82,15.7,1,22.2C309.82,95.57,310.14,108.48,319.18,121.69Z" fill="#fa1d3b"/><path d="M228.24,198.21c-23.78,0-75.7,11.62-73,62.5.72,13.74,13.68,21.13,29.45,21.13,14.13,0,34.86-13.65,43.59-13.65s29.46,13.65,43.59,13.65c15.77,0,28.73-7.39,29.45-21.13C303.94,209.83,252,198.21,228.24,198.21Z" fill="none" stroke="#fa1d3b" stroke-miterlimit="10" stroke-width="11"/><ellipse cx="226.4" cy="227.79" rx="36.21" ry="27.83" fill="#fa1d3b"/><path d="M317,440c-6.32-11-34.43-50.9-41.52-59.57S258.12,341,253.39,335.52s-15-6.3-27,0c-12-6.3-22.26-5.52-27,0s-15,36.25-22.06,44.91S142.14,429,135.83,440c-7.08,12.29-22.69,86.2,90.57,86.2S324.05,452.29,317,440Z" fill="none" stroke="#fa1d3b" stroke-miterlimit="10" stroke-width="11"/></svg>