<svg id="Laag_1" data-name="Laag 1" xmlns="http://www.w3.org/2000/svg" width="225.91mm" height="322.62mm" viewBox="0 0 640.37 914.52">
  <defs>
    <style>
      .cls-1 {
        fill: none;
        stroke: #e62b41;
        stroke-miterlimit: 10;
        stroke-width: 11px;
      }

      .cls-2 {
        fill: #e62b41;
      }
    </style>
  </defs>
  <title>obv icons</title>
  <path class="cls-1" d="M454.14,134.45v75.26c0,48.39-32.47,87.61-72.51,87.61H294.52c-40,0-72.52-39.22-72.52-87.61V134.45h35c44.79,0,81.1,43.86,81.1,98,0-54.11,36.3-98,81.08-98Z"/>
  <path class="cls-2" d="M381.19,296.56H294.08c-19.34,0-36.91-9.15-49.91-24.05h-.44v59.05H438.07V272.51h-7C418.09,287.41,400.52,296.56,381.19,296.56Z"/>
  <path class="cls-1" d="M331,306.87h22a141.2,141.2,0,0,1,141.2,141.2V783.54a0,0,0,0,1,0,0H189.84a0,0,0,0,1,0,0V448.07A141.2,141.2,0,0,1,331,306.87Z"/>
  <rect class="cls-1" x="411.54" y="60.95" width="22.6" height="73.44"/>
  <rect class="cls-1" x="242" y="60.95" width="23.86" height="73.44"/>
</svg>
