<svg xmlns="http://www.w3.org/2000/svg" width="348.78" height="396.13" viewBox="0 0 348.78 396.13"><title>Kat</title><g id="Layer_5" data-name="Layer 5"><path d="M223.28,125.62c4.5,0,8.33-5.93,7.5-8-2-5-13-4-15,0C214.78,119.62,218.78,125.62,223.28,125.62Z" fill="#fa1d3b"/><path d="M208.78,136.62c2,4,12,4,14-1" fill="none" stroke="#fa1d3b" stroke-linecap="round" stroke-miterlimit="10" stroke-width="4"/><path d="M236.78,136.62c-2,4-12,4-14-1" fill="none" stroke="#fa1d3b" stroke-linecap="round" stroke-miterlimit="10" stroke-width="4"/><line x1="222.78" y1="136.62" x2="222.78" y2="130.62" fill="none" stroke="#fa1d3b" stroke-linecap="round" stroke-miterlimit="10" stroke-width="4"/><path d="M220.78,390.32l103,.3s1.5-13.5-12.5-19.5c12-16,32-43,32-79s-26-92-46-115c1-19,9-105-15.5-171.5-.69-1.88-30,19-42,35a99,99,0,0,0-38,0c-12-16-41.31-36.88-42-35-24.5,66.5-16.5,152.5-15.5,171.5-20,23-46,79-46,115s20,63,32,79c-14,6-12.5,19.5-12.5,19.5Z" fill="none" stroke="#fa1d3b" stroke-miterlimit="10" stroke-width="11"/><path d="M118.28,352.12c-41,2-110.26-43.8-56-124,23-34-14-52-42-5s-26,163,94,163" fill="none" stroke="#fa1d3b" stroke-miterlimit="10" stroke-width="11"/><circle cx="195.28" cy="92.12" r="8.5" fill="#fa1d3b"/><circle cx="245.28" cy="92.12" r="8.5" fill="#fa1d3b"/><path d="M160.28,225.12c0,85.31,20.5,142,20.5,143.5-6,0-16,13-16,21" fill="none" stroke="#fa1d3b" stroke-miterlimit="10" stroke-width="11"/><path d="M276.78,389.62c0-8-10-21-16-21,0-1.5,21.5-58.68,21.5-143.5" fill="none" stroke="#fa1d3b" stroke-miterlimit="10" stroke-width="11"/></g></svg>