
<svg width="357px" height="309px" viewBox="0 0 357 309" version="1.1" xmlns="http://www.w3.org/2000/svg" xmlns:xlink="http://www.w3.org/1999/xlink">
    <defs>
        <linearGradient x1="50%" y1="59.1808673%" x2="50%" y2="100%" id="linearGradient-1">
            <stop stop-color="#FD3E6D" offset="0%"></stop>
            <stop stop-color="#50142C" offset="100%"></stop>
        </linearGradient>
    </defs>
    <g id="Design-Copy" stroke="none" stroke-width="1" fill="none" fill-rule="evenodd" opacity=".1">
        <g id="Input_4_publiek-Copy-18" fill="url(#linearGradient-1)" fill-rule="nonzero">
            <g id="white_logo" transform="translate(-55.000000, -33.000000)">
                <path d="M3.55271368e-14,169.761565 C3.55271368e-14,142.046148 5.1348329,116.450506 15.3165735,93.2385144 L15.3165735,248.923342 C5.1348329,225.174809 3.55271368e-14,198.66441 3.55271368e-14,169.761565 Z M333.113492,32.6533679 C361.873832,58.4249241 390.599001,102.913843 390.607794,169.743974 C390.607794,237.013893 362.067267,283.508243 333.122284,309.701995 L333.122284,281.230143 C318.852021,302.515865 297.943403,324.197396 269.561142,334.7523 L269.561142,323.185884 C250.753937,335.570305 229.177088,341.885655 205.683469,342 C182.550344,342 161.193307,335.825381 142.438858,323.590489 L142.438858,335.024968 C115.023774,324.936239 93.9305135,304.582867 78.8777157,281.986577 L78.8777157,310.247332 C48.6578172,283.209187 21.4009988,236.75002 21.4009988,169.743974 C21.4009988,105.411837 48.7633275,59.673921 78.8777157,32.4070868 L78.8777157,60.8085732 C93.939306,38.4145861 114.768791,17.5950388 142.438858,7.15448004 L142.438858,18.8528315 C161.161528,6.39068011 183.186951,-0.174645998 205.674677,0.00353287569 C228.396629,-0.0547194187 250.625805,6.62719709 269.55235,19.2046616 L269.55235,7.48871866 C296.184899,17.6478133 317.541935,37.7900877 333.113492,60.5798836 L333.113492,32.6533679 Z M269.55235,255.423403 C286.56588,238.755452 303.069444,210.793753 303.069444,169.735178 C303.069444,128.87011 286.46037,101.902331 269.55235,85.9996097 L269.55235,117.576363 C257.392292,91.5761171 234.197618,69.006215 205.674677,68.7071594 C176.597806,68.7071594 154.519783,91.3386318 142.430065,116.696788 L142.430065,85.1112386 C125.205515,101.128305 108.605233,129.116391 108.605233,169.735178 C108.605233,211.46223 124.968116,241.587684 142.430065,257.420039 L142.430065,225.597005 C154.598916,252.098609 175.630629,273.269986 205.349353,273.269986 L205.991207,273.269986 C235.129626,272.962135 257.093346,249.521453 269.55235,222.254619 L269.55235,255.423403 Z M396.674634,92.719565 C406.856375,115.878783 412,141.615156 412,169.735178 C412,198.470903 406.856375,224.770204 396.674634,248.404393 L396.674634,92.719565 Z" id="Combined-Shape"></path>
            </g>
        </g>
    </g>
</svg>