
<svg width="327px" height="416px" viewBox="0 0 327 416" version="1.1" xmlns="http://www.w3.org/2000/svg" xmlns:xlink="http://www.w3.org/1999/xlink">
    <defs>
        <linearGradient x1="50%" y1="34.1036169%" x2="50%" y2="87.9126721%" id="linearGradient-1">
            <stop stop-color="#FD3E6D" offset="0%"></stop>
            <stop stop-color="#50142C" offset="100%"></stop>
        </linearGradient>
    </defs>
    <g id="Design-Copy" stroke="none" stroke-width="1" fill="none" fill-rule="evenodd" opacity=".1">
        <g id="Input_4_publiek-Copy-18" transform="translate(-422.000000, -52.000000)" fill="url(#linearGradient-1)" fill-rule="nonzero">
            <g id="white_logo" transform="translate(-55.000000, -33.000000)">
                <path d="M716.842772,242.281386 C750.679146,262.427838 775.111646,306.461345 775.111646,365.765317 C775.111646,425.614977 750.679146,470.555031 716.842772,490.00617 L716.842772,471.593598 C699.889429,491.088745 678.796624,501.21918 653.309485,500.990343 L653.309485,499.089236 C647.732863,500.377905 642.026538,501.018767 636.303411,500.999582 C618.444836,500.999582 602.959201,493.861192 589.776198,479.40926 L589.776198,493.632355 C577.050206,487.03129 565.824146,475.844684 556.098019,460.072539 L556.098019,493.22749 L477,493.22749 L477,85 L556.098019,85 L556.098019,272.012585 C566.45986,256.997361 577.665412,246.189217 589.776198,239.447329 L589.776198,253.987275 C604.040207,238.646399 619.912543,231.103582 637.437149,231.103582 C642.77813,231.073081 648.104582,231.663798 653.309485,232.863866 L653.309485,231.103582 C678.770258,230.381865 700.425538,241.867719 716.842772,261.318859 L716.842772,242.281386 Z M677.865025,416.549514 C688.762975,402.564056 694.431666,386.008584 694.431666,366.812686 C694.431666,347.123908 689.158465,330.559635 678.304459,316.556574 C671.150482,307.024636 662.871556,300.626003 653.344639,297.5103 L653.344639,309.568246 C644.643857,300.185932 634.378692,295.353952 622.364582,295.353952 C609.691322,295.353952 598.995512,300.678812 589.811353,311.064488 L589.811353,298.170407 C580.978741,301.47094 573.183191,307.649537 566.213777,316.59178 C555.350982,330.586039 550.077781,347.159114 550.077781,366.328608 C550.077781,385.498102 555.324616,402.599262 566.213777,416.58472 C573.112882,425.474154 581.022684,431.423915 589.811353,434.583625 L589.811353,422.068005 C599.07461,432.330461 610.025291,437.312065 622.329427,437.312065 C633.974413,437.312065 644.292311,432.656114 653.309485,422.974551 L653.309485,435.032497 C662.396968,431.996007 670.579219,425.905424 677.865025,416.549514 Z M804,365.765317 C804,400.495723 796.090198,430.015687 780.376058,453.88514 L780.376058,279.185743 C796.116564,302.975982 804,331.95906 804,365.765317 Z" id="Combined-Shape"></path>
            </g>
        </g>
    </g>
</svg>