<svg xmlns="http://www.w3.org/2000/svg" width="374.12" height="1250.54" viewBox="0 0 374.12 1250.54"><title>Papegaai</title><g id="Layer_8" data-name="Layer 8"><path d="M235.7,11c19.67,0,36.18,6.13,50.47,18.75,9.17,8.09,15.53,22.38,20.18,32.81,4.47,10,7.16,16.09,12.81,18.94,27.79,14,42.52,32.93,43.78,56.15,1.3,23.95-12,49.26-29.26,68,1.25-10.13,1.43-16.16,1.44-16.6l.5-19.79-17.08,10c-.22.13-22.41,13.11-40.7,18.44l-7.54,2.19-.38,7.83c-.45,9.2,3.81,46.54,4.67,53.93l2.79,24.09,16.29-18c3.08-3.4,14.38-13.13,25.42-13.13,9,0,17.31,6.75,24.68,20.07,13.17,23.82,20.69,73.59,19.16,126.81-1.7,59-13.79,109.91-33.17,139.66l-2.07,3.18.33,3.79c1.28,14.39-5.15,42.25-16.36,71s-25.4,53.43-36,62.62l-1.25,1.09-.88,1.4c-2.25,3.61-13.9,23.5-22.28,61.69-10.09,45.95-11.34,98.67-3.72,156.68,5.5,41.88,10.19,79.46,14.74,115.8,8.27,66.23,15.59,124.78,24.22,179.54-18.45-49-36.69-99-46.8-128.43l-21.4-62.31v65.88c0,35.43,2,65.19,7.43,106.58-1.94-4.06-4.05-8.27-6.37-12.87-20-39.79-53.48-106.39-75.29-305l-.07-.58-.12-.58C119.42,749.47,103,683.16,87.08,631.83c-16.17-52.19-32.35-90.11-52.83-138.12a289.6,289.6,0,0,1-20.52-76.27,348.77,348.77,0,0,1-1-78.72,416.45,416.45,0,0,1,43-146.26l1.54-3-.44-3.37c-.73-5.51-4.32-9.2-7.34-11.94a258.27,258.27,0,0,1,32.23-50.54l4.59-5.68-3.45-6.44a40.08,40.08,0,0,0-10-11.57A498.8,498.8,0,0,1,120.72,59.7c43.37-31.86,83.13-48.7,115-48.7h0m0-11C152.05,0,55.46,101.67,55.46,101.67s12.9,6,17.7,15c-23.48,29-34.85,54.91-36.08,58.6s8.27,7.88,8.84,12.23C1,276-19.46,395.88,24.13,498s59.93,141.65,109,365c25.88,235.64,68.11,287.4,85.81,328.26,8.83,20.36,15.14,31.1,18.49,31.1s3.72-10.89.58-33.83c-6.49-47.46-8.71-78.7-8.71-115.48,11.37,33.1,32.88,91.86,53.18,145.31,8.92,23.52,14.68,32.12,17.88,32.12,3.81,0,4-12.18,1.66-25.92-15.56-91-25.87-188.58-43.58-323.42s19.06-202.51,24.43-211.11C309.1,667.36,342.05,581.93,339,547.2c45.13-69.31,43.24-225.67,14.41-277.79-10.86-19.63-23.17-25.75-34.3-25.75-18.41,0-33.58,16.75-33.58,16.75s-5-43.37-4.6-52.12c19.88-5.79,43.21-19.52,43.21-19.52s-.46,17.91-6.55,45c47.78-31,95.52-117.18,6.55-162.13-5.56-2.81-12.79-34.4-30.67-50.18C276.07,6.16,256.27,0,235.69,0Z" fill="#fa1d3b"/><circle cx="209.25" cy="88.44" r="14.04" fill="#fa1d3b"/></g></svg>