<svg xmlns="http://www.w3.org/2000/svg" width="378.42" height="312.02" viewBox="0 0 378.42 312.02"><title>Vogel2</title><g id="Layer_1" data-name="Layer 1"><path d="M262.58,235.72c-46.36-2.34-92.22-32.54-98.29-55" fill="none" stroke="#fa1d3b" stroke-miterlimit="10" stroke-width="11"/></g><g id="Layer_10" data-name="Layer 10"><path d="M49.35,119.39a5.9,5.9,0,0,0-1.6-4.1C37.55,104.75,15.67,5.5,108.64,5.5c77.9,0,75.38,77.1,158.69,152.92,22.4,20.39,60.36,24.56,86.88,25.54,18.39.67,25.56,24.1,10.77,35-30.76,22.78-90,18-102.4,16.71a6.24,6.24,0,0,0-4.17,1.09c-36.44,24.81-208.67,57-208.95-72C49.39,135.83,49.36,124.12,49.35,119.39Z" fill="none" stroke="#fa1d3b" stroke-miterlimit="10" stroke-width="11"/><path d="M221,251.69s2.37,53.66-.22,54.77-22.56-14.79-47,0" fill="none" stroke="#fa1d3b" stroke-linecap="round" stroke-miterlimit="10" stroke-width="11"/><path d="M147.87,261.69s2.92,43.66.34,44.77-22.56-14.79-47,0" fill="none" stroke="#fa1d3b" stroke-linecap="round" stroke-miterlimit="10" stroke-width="11"/><circle cx="98.15" cy="64.67" r="14.86" fill="#fa1d3b"/><path d="M3.05,79.42a6.13,6.13,0,0,1,.54-10.88c10.52-4.8,30.72-11.39,34.64-11.39,13.29,0,13.51,35.61,0,35.61C32.16,92.76,12.83,85.1,3.05,79.42Z" fill="#fa1d3b"/></g></svg>