<svg id="Laag_1" data-name="Laag 1" xmlns="http://www.w3.org/2000/svg" width="173.07mm" height="120.95mm" viewBox="0 0 490.59 342.85">
  <defs>
    <style>
      .cls-1 {
        fill: none;
        stroke: #e62b41;
        stroke-miterlimit: 10;
        stroke-width: 11px;
      }
    </style>
  </defs>
  <title>obv icons</title>
  <g>
    <path class="cls-1" d="M97.93,52.62H332.79A27.42,27.42,0,0,1,360.22,80v70.68a0,0,0,0,1,0,0H70.51a0,0,0,0,1,0,0V80A27.42,27.42,0,0,1,97.93,52.62Z"/>
    <path class="cls-1" d="M68.73,151H362.12a34,34,0,0,1,34,34v19.3a0,0,0,0,1,0,0H34.71a0,0,0,0,1,0,0v-19.3A34,34,0,0,1,68.73,151Z"/>
    <path class="cls-1" d="M34.71,204.51H396.14a0,0,0,0,1,0,0V223a17,17,0,0,1-17,17H48.88A14.17,14.17,0,0,1,34.71,225.8V204.51a0,0,0,0,1,0,0Z"/>
    <path class="cls-1" d="M107.73,101.67h80.41a11.54,11.54,0,0,1,11.54,11.54v37.1a0,0,0,0,1,0,0H96.19a0,0,0,0,1,0,0v-37.1A11.54,11.54,0,0,1,107.73,101.67Z"/>
    <path class="cls-1" d="M243.21,101.67h80.41a11.54,11.54,0,0,1,11.54,11.54v37.1a0,0,0,0,1,0,0H231.67a0,0,0,0,1,0,0v-37.1A11.54,11.54,0,0,1,243.21,101.67Z"/>
    <path class="cls-1" d="M71.21,241.93H97.84a0,0,0,0,1,0,0v32A4.83,4.83,0,0,1,93,278.78H76A4.83,4.83,0,0,1,71.21,274v-32A0,0,0,0,1,71.21,241.93Z"/>
    <path class="cls-1" d="M329.24,241.38h26.63a0,0,0,0,1,0,0v32a4.83,4.83,0,0,1-4.83,4.83h-17a4.83,4.83,0,0,1-4.83-4.83v-32A0,0,0,0,1,329.24,241.38Z"/>
  </g>
</svg>
