<svg xmlns="http://www.w3.org/2000/svg" width="672.5" height="543.01" viewBox="0 0 672.5 543.01"><title>Slang3</title><g id="Layer_6" data-name="Layer 6"><path d="M170.68,5.5h332.4c218.62,0,218.62,310.9-.38,310.9H170.84c-67.2,0-67.53,104.86.09,104.86H502.58c66.72,0,70.71,116.25,0,116.25H171.17c-221.16,0-220.81-322.94.53-322.94H502.53c67.77,0,67.77-105.52.33-105.52-16.21,0-75.49.36-332.37.36C104.23,109.41,103.31,5.5,170.68,5.5Z" fill="none" stroke="#fa1d3b" stroke-miterlimit="10" stroke-width="11"/><circle cx="432.68" cy="459.71" r="13.07" fill="#fa1d3b"/><circle cx="478.51" cy="472.97" r="13.49" fill="#fa1d3b"/><polygon points="549.24 505.78 614.22 505.78 600.31 495.72 614.22 487.51 551.83 487.51 549.24 505.78" fill="#fa1d3b"/></g></svg>