<svg id="Laag_1" data-name="Laag 1" xmlns="http://www.w3.org/2000/svg" width="196.41mm" height="201.96mm" viewBox="0 0 556.76 572.49">
  <defs>
    <style>
      .cls-1 {
        fill: none;
        stroke: #e62b41;
        stroke-miterlimit: 10;
        stroke-width: 11px;
      }

      .cls-2 {
        fill: #e62b41;
      }
    </style>
  </defs>
  <title>sweater icon</title>
  <g>
    <path class="cls-1" d="M314.35,67.07c.06,8.4-15.15,18.74-34.72,19.31-20,.58-39.51-13.93-38.13-20.6s23.15-5,36.25-5.29C291.11,60.23,314.31,61.42,314.35,67.07Z"/>
    <path class="cls-1" d="M313.46,77.37q0,8.47-.1,16.95c-1.75,2.19-13.51,16.38-33.69,17.23-22.87,1-36.64-16.08-38-17.79l-.2-18.29a82.94,82.94,0,0,0,34.85,9.15A83,83,0,0,0,313.46,77.37Z"/>
    <path class="cls-1" d="M182.84,196.69,188,251.56"/>
    <g>
      <path class="cls-1" d="M241.7,93.76l-71.51,27.55a18.84,18.84,0,0,0-4,2.15h0s-4.54,2.27-7,9.76c-1.8,5.51-26.79,108.8-60.27,249.51a5.75,5.75,0,0,0,5,7L140,393.61a5.77,5.77,0,0,0,6.12-4.07q21-69.82,42-139.66A434.14,434.14,0,0,1,191.23,329a434.77,434.77,0,0,1-7,58.18,162.64,162.64,0,0,0,99.72,15.22Q281.79,257,279.67,111.55"/>
      <path class="cls-1" d="M145.26,391.26,140,410a5.51,5.51,0,0,1-5.86,4.15l-34.61-3.9A5.85,5.85,0,0,1,94.72,403q2-8.87,3.92-17.55"/>
      <path class="cls-1" d="M189.22,357.35a58.43,58.43,0,0,0,38-63.23"/>
    </g>
    <path class="cls-1" d="M374.9,196.89l-5.19,54.86"/>
    <g>
      <path class="cls-1" d="M316,94l71.5,27.55a18.17,18.17,0,0,1,4,2.15h0s4.54,2.27,7,9.76c1.8,5.5,26.79,108.79,60.27,249.5a5.76,5.76,0,0,1-5,7.06l-36.1,3.82a5.74,5.74,0,0,1-6.11-4.06l-42-139.67a428.89,428.89,0,0,0,4.09,137.52,168.15,168.15,0,0,1-87.76,14.81"/>
      <path class="cls-1" d="M412.47,391.46l5.29,18.74a5.55,5.55,0,0,0,5.87,4.15l34.61-3.91a5.84,5.84,0,0,0,4.78-7.2q-2-8.88-3.92-17.56"/>
      <path class="cls-1" d="M368.52,357.54a58.4,58.4,0,0,1-38-63.23"/>
    </g>
    <rect class="cls-2" x="274.37" y="84.52" width="10.53" height="30.24"/>
  </g>
</svg>
