<svg id="Layer_1" data-name="Layer 1" xmlns="http://www.w3.org/2000/svg" width="643.89" height="1725.32" viewBox="0 0 643.89 1725.32"><title>Viool</title><path d="M611.91,1327.49c-40-54.75-9.74-86.42-9.74-86.42l-23-32.91c-22.21,14.45-58.87,0-65.29-12.84s-20.07-58.6-17.66-143.69S558,988.22,558,988.22s-.45,3.14,4.56-11.88c-7.51-6.67-9.12-22.52-9.12-37s25.7-53,25.7-130.07c0-71.75-45-203.35-217.21-221.18L348.83,210s7.86-2.78,14.79-4.62c0-44.84-18.33-136.72-18.33-144C357,61.29,367.9,5.5,322,5.5S283.41,61.29,298.6,61.29c0,7.32-18.33,99.2-18.33,144,6.93,1.84,14.79,4.62,14.79,4.62L281.94,588.12C109.69,606,64.73,737.55,64.73,809.3c0,77.08,25.7,115.62,25.7,130.07s-1.61,30.3-9.12,37c5,15,4.56,11.88,4.56,11.88s59.4-21.67,61.81,63.41S136.44,1182.47,130,1195.32s-43.08,27.29-65.29,12.84l-23,32.91S72,1272.74,32,1327.49c-14.49,19.83-124.79,392.33,245.72,392.33h88.49C736.7,1719.82,626.39,1347.32,611.91,1327.49Z" fill="none" stroke="#fa1d3b" stroke-miterlimit="10" stroke-width="20"/><polygon points="293.29 96.75 258.69 96.75 258.69 111.18 290.99 111.18 293.29 96.75" fill="#fa1d3b"/><polygon points="286.59 153.24 257.35 153.24 257.35 167.67 284.29 167.67 286.59 153.24" fill="#fa1d3b"/><path d="M264.76,103.52c0,11.82,1.38,23.22-15.9,23.22s-36.66-1.81-36.66-23.22,19.37-23.21,36.66-23.21S264.76,91.7,264.76,103.52Z" fill="#fa1d3b"/><polygon points="349.73 80.01 384.33 80.01 384.33 94.44 352.04 94.44 349.73 80.01" fill="#fa1d3b"/><path d="M378.26,86.78c0,11.83-1.38,23.22,15.9,23.22s36.66-1.81,36.66-23.22-19.37-23.21-36.66-23.21S378.26,75,378.26,86.78Z" fill="#fa1d3b"/><polygon points="354.42 131.81 384.33 131.81 384.33 146.24 356.72 146.24 354.42 131.81" fill="#fa1d3b"/><path d="M378.26,138.58c0,11.82-1.38,23.22,15.9,23.22s36.66-1.81,36.66-23.22-19.37-23.21-36.66-23.21S378.26,126.76,378.26,138.58Z" fill="#fa1d3b"/><path d="M263.42,159.73c0,11.82,1.38,23.21-15.9,23.21s-36.66-1.81-36.66-23.21,19.37-23.22,36.66-23.22S263.42,147.91,263.42,159.73Z" fill="#fa1d3b"/><path d="M290.42,1720.32c-192.62,0-267.52-100.57-267.49-146,0-66.47,93.59-66,174.49-66C362.44,1508.35,371.33,1720.32,290.42,1720.32Z" fill="#fa1d3b"/></svg>