<svg xmlns="http://www.w3.org/2000/svg" width="263.85" height="468.34" viewBox="0 0 263.85 468.34"><title>Wit</title><g id="Layer_10" data-name="Layer 10"><path d="M34.28,5.5H229.57a28.78,28.78,0,0,1,28.78,28.78V383.09a0,0,0,0,1,0,0H5.5a0,0,0,0,1,0,0V34.28A28.78,28.78,0,0,1,34.28,5.5Z" fill="none" stroke="#fa1d3b" stroke-miterlimit="10" stroke-width="11"/><path d="M5.5,383.09H258.35a0,0,0,0,1,0,0v53.1a26.64,26.64,0,0,1-26.64,26.64H32.14A26.64,26.64,0,0,1,5.5,436.2v-53.1a0,0,0,0,1,0,0Z" fill="#f4f4f4" stroke="#fa1d3b" stroke-miterlimit="10" stroke-width="11"/><circle cx="131.92" cy="422.97" r="16.64" fill="#fa1d3b"/></g></svg>