<svg id="Laag_1" data-name="Laag 1" xmlns="http://www.w3.org/2000/svg" width="244.21mm" height="230.49mm" viewBox="0 0 692.24 653.36">
  <defs>
    <style>
      .cls-1 {
        fill: none;
        stroke: #e62b41;
        stroke-miterlimit: 10;
        stroke-width: 11px;
      }
    </style>
  </defs>
  <title>obv icons</title>
  <path class="cls-1" d="M138.78,188.29V125.52a13.7,13.7,0,0,1,13.7-13.7H570.22a13.7,13.7,0,0,1,13.7,13.7V186.1"/>
  <path class="cls-1" d="M583.59,188.27h2.65a22.68,22.68,0,0,1,22.68,22.68V334.68a22.68,22.68,0,0,1-22.68,22.68H560.91a0,0,0,0,1,0,0V210.94A22.68,22.68,0,0,1,583.59,188.27Z"/>
  <path class="cls-1" d="M137.18,188.29h-2.65A22.67,22.67,0,0,0,111.86,211V334.7a22.67,22.67,0,0,0,22.67,22.67h25.33V211a22.68,22.68,0,0,0-22.68-22.68"/>
  <path class="cls-1" d="M189.37,253.73H533.13a27.76,27.76,0,0,1,27.76,27.76v36.24a0,0,0,0,1,0,0H161.61a0,0,0,0,1,0,0V281.48A27.76,27.76,0,0,1,189.37,253.73Z"/>
  <rect class="cls-1" x="159.86" y="317.67" width="400.8" height="39.69"/>
  <path class="cls-1" d="M159.86,357.37h41.06a0,0,0,0,1,0,0v29.55a2.83,2.83,0,0,1-2.83,2.83H162.69a2.83,2.83,0,0,1-2.83-2.83V357.37A0,0,0,0,1,159.86,357.37Z"/>
  <path class="cls-1" d="M519.87,359.29h41.06a0,0,0,0,1,0,0v29.55a2.83,2.83,0,0,1-2.83,2.83H522.7a2.83,2.83,0,0,1-2.83-2.83V359.29A0,0,0,0,1,519.87,359.29Z"/>
</svg>
